<svg xmlns="http://www.w3.org/2000/svg" version="1.1" xmlns:xlink="http://www.w3.org/1999/xlink" xmlns:svgjs="http://svgjs.dev/svgjs" width="1440" height="560" preserveAspectRatio="none" viewBox="0 0 1440 560"><g mask="url(&quot;#SvgjsMask1235&quot;)" fill="none"><rect width="1440" height="560" x="0" y="0" fill="rgba(32, 32, 32, 1)"></rect><path d="M402.442,383.639C436.616,386.069,470.951,368.015,486.501,337.487C500.993,309.035,488.855,275.82,470.763,249.51C455.291,227.009,429.748,215.075,402.442,215.244C375.46,215.411,349.245,227.086,335.568,250.346C321.714,273.908,324.565,302.41,336.822,326.841C350.726,354.555,371.514,381.439,402.442,383.639" fill="rgba(94, 94, 94, 0.3)" class="triangle-float3"></path><path d="M530.311,351.802C577.748,353.479,622.24,326.75,645.316,285.27C667.797,244.859,664.047,195.008,639.251,155.975C616.147,119.605,573.394,103.608,530.311,104.232C488.436,104.838,447.895,122.932,426.701,159.052C405.263,195.588,408.52,240.296,428.577,277.608C449.876,317.231,485.354,350.213,530.311,351.802" fill="rgba(94, 94, 94, 0.3)" class="triangle-float2"></path><path d="M1252.705,726.439C1295.48,725.316,1326,688.813,1345.515,650.732C1363.099,616.419,1365.385,576.604,1346.805,542.82C1327.513,507.742,1292.606,485.231,1252.705,481.981C1205.631,478.147,1151.532,484.2,1127.693,524.972C1103.721,565.971,1126.012,615.482,1151.053,655.837C1174.367,693.409,1208.503,727.599,1252.705,726.439" fill="rgba(94, 94, 94, 0.3)" class="triangle-float1"></path><path d="M1197.172,183.407C1223.416,183.236,1249.941,174.282,1263.485,151.802C1277.421,128.672,1274.053,100.271,1261.743,76.236C1248.043,49.488,1227.147,24.481,1197.172,22.328C1163.837,19.934,1129.684,35.998,1114.257,65.645C1099.69,93.639,1111.178,126.873,1129.345,152.676C1144.661,174.429,1170.569,183.58,1197.172,183.407" fill="rgba(94, 94, 94, 0.3)" class="triangle-float3"></path><path d="M242.99,231.141C279.245,228.995,315.143,217.255,334.256,186.373C354.358,153.894,354.457,113.387,336.851,79.49C317.684,42.588,284.56,11.682,242.99,10.659C199.915,9.599,162.863,37.671,140.772,74.665C118.033,112.743,106.618,161.28,130.874,198.411C153.694,233.345,201.336,233.606,242.99,231.141" fill="rgba(94, 94, 94, 0.3)" class="triangle-float3"></path><path d="M1059.331,219.805C1090.61,218.204,1115.303,196.811,1131.464,169.982C1148.287,142.054,1159.05,108.384,1143.807,79.564C1127.743,49.191,1093.689,33.399,1059.331,33.599C1025.331,33.797,993.955,51.335,976.54,80.537C958.679,110.487,955.346,148.109,973.165,178.084C990.643,207.484,1025.173,221.553,1059.331,219.805" fill="rgba(94, 94, 94, 0.3)" class="triangle-float3"></path><path d="M248.706,112.605C275.138,113.551,302.109,101.855,314.376,78.423C325.993,56.233,315.042,31.13,302.797,9.28C290.162,-13.266,274.551,-38.842,248.706,-38.755C222.941,-38.669,207.026,-13.271,195.24,9.64C184.696,30.136,180.083,53.54,190.705,73.996C202.177,96.088,223.829,111.714,248.706,112.605" fill="rgba(94, 94, 94, 0.3)" class="triangle-float3"></path><path d="M942.314,257.78C990.713,258.414,1032.415,225.753,1055.388,183.149C1077.19,142.715,1074.365,94.666,1051.86,54.619C1028.85,13.674,989.144,-14.458,942.314,-18.062C887.88,-22.251,825.191,-12.777,799.07,35.164C773.551,82,805.398,135.397,834.259,180.251C859.969,220.207,894.805,257.157,942.314,257.78" fill="rgba(94, 94, 94, 0.3)" class="triangle-float3"></path><path d="M763.744,782.769C822.908,784.635,867.158,733.003,893.831,680.16C917.695,632.881,917.771,577.266,890.339,531.964C863.865,488.245,814.77,468.265,763.744,465.334C705.748,462.003,637.685,465.199,609.177,515.815C580.933,565.963,618.293,622.572,647.132,672.38C675.877,722.027,706.405,780.961,763.744,782.769" fill="rgba(94, 94, 94, 0.3)" class="triangle-float2"></path><path d="M85.222,684.608C128.663,687.255,176.256,676.541,198.154,638.929C220.148,601.152,205.179,554.932,182.463,517.585C160.816,481.995,126.878,453.363,85.222,453.254C43.403,453.145,6.608,480.088,-12.902,517.077C-31.171,551.714,-25.938,592.689,-6.147,626.48C13.406,659.864,46.605,682.255,85.222,684.608" fill="rgba(94, 94, 94, 0.3)" class="triangle-float3"></path></g><defs><mask id="SvgjsMask1235"><rect width="1440" height="560" fill="#ffffff"></rect></mask><style>
                @keyframes float1 {
                    0%{transform: translate(0, 0)}
                    50%{transform: translate(-10px, 0)}
                    100%{transform: translate(0, 0)}
                }

                .triangle-float1 {
                    animation: float1 5s infinite;
                }

                @keyframes float2 {
                    0%{transform: translate(0, 0)}
                    50%{transform: translate(-5px, -5px)}
                    100%{transform: translate(0, 0)}
                }

                .triangle-float2 {
                    animation: float2 4s infinite;
                }

                @keyframes float3 {
                    0%{transform: translate(0, 0)}
                    50%{transform: translate(0, -10px)}
                    100%{transform: translate(0, 0)}
                }

                .triangle-float3 {
                    animation: float3 6s infinite;
                }
            </style></defs></svg>