<svg xmlns="http://www.w3.org/2000/svg" version="1.1" xmlns:xlink="http://www.w3.org/1999/xlink" xmlns:svgjs="http://svgjs.dev/svgjs" width="1440" height="560" preserveAspectRatio="none" viewBox="0 0 1440 560"><g mask="url(&quot;#SvgjsMask1152&quot;)" fill="none"><rect width="1440" height="560" x="0" y="0" fill="rgba(240, 240, 240, 1)"></rect><path d="M894.557,271.419C934.536,269.237,962,235.318,980.971,200.058C998.719,167.07,1006.06,128.976,989.189,95.531C970.553,58.586,935.903,27.09,894.557,28.751C855.069,30.337,831.929,68.375,812.234,102.638C792.633,136.737,772.855,175.127,790.097,210.477C809.038,249.311,851.414,273.774,894.557,271.419" fill="rgba(102, 175, 255, 0.22)" class="triangle-float1"></path><path d="M1265.982,392.143C1307.181,394.987,1349.837,375.892,1368.719,339.164C1386.474,304.629,1367.283,266.201,1348.079,232.45C1328.569,198.163,1305.377,160.669,1265.982,158.61C1224.011,156.416,1185.763,185.141,1167.538,223.012C1151.274,256.807,1166.323,294.081,1185.19,326.495C1203.899,358.638,1228.878,389.582,1265.982,392.143" fill="rgba(102, 175, 255, 0.22)" class="triangle-float3"></path><path d="M364.67,297.773C402.742,297.557,444.295,293.13,464.683,260.976C486.201,227.041,482.109,181.672,459.235,148.636C438.925,119.303,400.299,114.668,364.67,116.533C332.935,118.195,304.065,131.688,285.831,157.715C263.909,189.006,243.935,228.826,262.676,262.12C281.611,295.758,326.07,297.992,364.67,297.773" fill="rgba(102, 175, 255, 0.22)" class="triangle-float2"></path><path d="M108.251,320.242C153.741,319.078,196.068,296.205,218.633,256.689C241.016,217.491,238.988,169.599,216.677,130.361C194.095,90.646,153.933,63.199,108.251,62.564C61.493,61.914,18.621,87.225,-5.526,127.271C-30.524,168.727,-36.955,220.899,-12.368,262.6C11.89,303.742,60.506,321.464,108.251,320.242" fill="rgba(102, 175, 255, 0.22)" class="triangle-float2"></path><path d="M778.326,420.637C830.984,423.544,885.176,406.102,913.678,361.73C944.378,313.936,949.77,250.058,918.254,202.797C889.177,159.194,830.626,155.383,778.326,158.758C733.044,161.68,689.596,179.963,666.535,219.042C643.104,258.748,644.242,307.769,666.601,348.089C689.681,389.71,730.806,418.013,778.326,420.637" fill="rgba(102, 175, 255, 0.22)" class="triangle-float3"></path><path d="M896.512,585.077C919.48,584.907,945.015,581.819,956.488,561.921C967.953,542.036,958.401,518.06,946.453,498.461C935.12,479.871,918.251,464.74,896.512,463.537C872.6,462.214,848.601,471.991,835.985,492.348C822.721,513.75,821.219,541.734,834.982,562.819C847.76,582.395,873.136,585.25,896.512,585.077" fill="rgba(102, 175, 255, 0.22)" class="triangle-float1"></path><path d="M1046.409,627.305C1081.397,628.264,1117.175,616.461,1135.555,586.674C1154.773,555.528,1153.594,515.575,1134.688,484.238C1116.373,453.882,1081.858,439.46,1046.409,438.916C1009.844,438.355,971.337,449.637,953.311,481.455C935.477,512.935,945.876,551.512,965.343,582.009C983.194,609.974,1013.244,626.396,1046.409,627.305" fill="rgba(102, 175, 255, 0.22)" class="triangle-float2"></path><path d="M429.372,636.008C475.098,635.842,516.287,608.808,538.227,568.69C559.313,530.133,553.719,484.749,533.407,445.779C511.125,403.029,477.551,361.529,429.372,359.845C378.996,358.084,335.391,393.424,311.931,438.039C290.042,479.667,295.143,529.037,319.139,569.487C342.608,609.048,383.374,636.175,429.372,636.008" fill="rgba(102, 175, 255, 0.22)" class="triangle-float1"></path><path d="M347.361,227.301C373.543,226.222,392.538,204.885,404.848,181.752C416.29,160.25,420.896,134.207,407.842,113.643C395.49,94.185,370.399,91.886,347.361,91.192C322.481,90.442,294.402,89.342,280.219,109.797C264.531,132.422,267.371,162.952,281.03,186.857C294.8,210.955,319.63,228.444,347.361,227.301" fill="rgba(102, 175, 255, 0.22)" class="triangle-float1"></path><path d="M150.926,84.681C173.337,83.793,189.626,65.753,200.461,46.115C210.849,27.287,215.12,5.253,205.304,-13.88C194.618,-34.709,174.335,-50.659,150.926,-50.442C127.82,-50.228,109.618,-33.014,98.267,-12.887C87.148,6.828,83.343,30.41,94.093,50.328C105.361,71.206,127.22,85.62,150.926,84.681" fill="rgba(102, 175, 255, 0.22)" class="triangle-float2"></path></g><defs><mask id="SvgjsMask1152"><rect width="1440" height="560" fill="#ffffff"></rect></mask><style>
                @keyframes float1 {
                    0%{transform: translate(0, 0)}
                    50%{transform: translate(-10px, 0)}
                    100%{transform: translate(0, 0)}
                }

                .triangle-float1 {
                    animation: float1 5s infinite;
                }

                @keyframes float2 {
                    0%{transform: translate(0, 0)}
                    50%{transform: translate(-5px, -5px)}
                    100%{transform: translate(0, 0)}
                }

                .triangle-float2 {
                    animation: float2 4s infinite;
                }

                @keyframes float3 {
                    0%{transform: translate(0, 0)}
                    50%{transform: translate(0, -10px)}
                    100%{transform: translate(0, 0)}
                }

                .triangle-float3 {
                    animation: float3 6s infinite;
                }
            </style></defs></svg>